<svg width="17" height="17" viewBox="0 0 17 17" fill="none" xmlns="http://www.w3.org/2000/svg">
<path fill-rule="evenodd" clip-rule="evenodd" d="M11.9849 16.3389C10.831 16.2964 7.56065 15.8445 4.13567 12.4203C0.711477 8.99528 0.260314 5.72575 0.217041 4.571C0.152933 2.81123 1.50081 1.10194 3.05784 0.434409C3.24534 0.353446 3.45067 0.322621 3.65367 0.344958C3.85668 0.367296 4.05039 0.442029 4.2158 0.561824C5.49797 1.4962 6.38266 2.90979 7.14235 4.02127C7.3095 4.26547 7.38096 4.56263 7.34313 4.85612C7.3053 5.14962 7.16081 5.41894 6.9372 5.61276L5.37376 6.77392C5.29822 6.82847 5.24505 6.90858 5.22413 6.99936C5.2032 7.09015 5.21593 7.18545 5.25997 7.26756C5.61416 7.91105 6.24403 8.86947 6.96525 9.59069C7.68647 10.3119 8.69057 10.9834 9.37893 11.3777C9.46524 11.4262 9.56683 11.4397 9.66281 11.4156C9.7588 11.3914 9.84189 11.3314 9.895 11.2479L10.9127 9.69887C11.0998 9.45033 11.3758 9.28382 11.683 9.23423C11.9901 9.18464 12.3045 9.2558 12.5603 9.43282C13.6878 10.2133 15.0036 11.0828 15.9669 12.3161C16.0964 12.4827 16.1788 12.681 16.2054 12.8904C16.2321 13.0997 16.202 13.3124 16.1183 13.5061C15.4476 15.0711 13.7503 16.4038 11.9849 16.3389Z" fill="black"/>
</svg>
