<svg width="27" height="32" viewBox="0 0 27 32" fill="none" xmlns="http://www.w3.org/2000/svg">
<path d="M24.3261 11.1653L7.13456 0.777125C6.4124 0.340804 5.60991 0.134786 4.80332 0.178637C3.99673 0.222487 3.2128 0.514752 2.52598 1.02767C1.83915 1.5406 1.27224 2.25715 0.87907 3.10929C0.485899 3.96143 0.279524 4.92086 0.279541 5.89649V25.5345C0.279524 26.5101 0.485899 27.4696 0.87907 28.3217C1.27224 29.1738 1.83915 29.8904 2.52598 30.4033C3.2128 30.9162 3.99673 31.2085 4.80332 31.2524C5.60991 31.2962 6.4124 31.0902 7.13456 30.6539L24.3261 20.2657C27.4312 18.3897 27.4312 13.0413 24.3261 11.1653Z" fill="black"/>
</svg>
